<?xml version="1.0" encoding="UTF-8"?>
<!DOCTYPE svg PUBLIC "-//W3C//DTD SVG 1.1//EN" "http://www.w3.org/Graphics/SVG/1.1/DTD/svg11.dtd">
<svg xmlns="http://www.w3.org/2000/svg" version="1.1" width="500px" height="500px" style="shape-rendering:geometricPrecision; text-rendering:geometricPrecision; image-rendering:optimizeQuality; fill-rule:evenodd; clip-rule:evenodd" xmlns:xlink="http://www.w3.org/1999/xlink">
<g><path style="opacity:1" fill="#f6cc52" d="M 264.5,175.5 C 264.427,177.027 265.094,178.027 266.5,178.5C 282.828,204.159 283.661,230.492 269,257.5C 248.843,285.889 221.676,296.389 187.5,289C 154.324,277.481 136.657,254.148 134.5,219C 135.285,206.565 138.285,194.731 143.5,183.5C 145.25,182.341 146.25,180.674 146.5,178.5C 148.262,177.738 149.262,176.404 149.5,174.5C 153.833,170.833 157.833,166.833 161.5,162.5C 162.167,162.5 162.5,162.167 162.5,161.5C 193.719,140.862 224.386,141.695 254.5,164C 258.416,167.41 261.749,171.243 264.5,175.5 Z M 209.5,273.5 C 210.468,275.607 210.802,277.941 210.5,280.5C 202.326,280.788 194.326,279.788 186.5,277.5C 186.092,238.824 186.092,200.157 186.5,161.5C 193.862,158.241 201.529,157.075 209.5,158C 210.602,160.401 210.769,162.901 210,165.5C 209.5,165 209,164.5 208.5,164C 203.463,163.337 198.463,163.504 193.5,164.5C 193.5,181.5 193.5,198.5 193.5,215.5C 199.932,216.653 205.432,214.986 210,210.5C 210.667,216.5 210.667,222.5 210,228.5C 205.432,224.014 199.932,222.347 193.5,223.5C 193.952,240.497 194.286,257.497 194.5,274.5C 199.14,275.397 203.806,275.564 208.5,275C 209.056,274.617 209.389,274.117 209.5,273.5 Z M 253.5,248.5 C 256.167,247.167 258.833,247.167 261.5,248.5C 252.055,264.496 238.221,274.829 220,279.5C 218.307,239.175 218.14,198.842 219.5,158.5C 222.021,159.785 224.687,160.452 227.5,160.5C 226.552,197.486 226.219,234.486 226.5,271.5C 237.405,268.101 246.238,261.767 253,252.5C 253.49,251.207 253.657,249.873 253.5,248.5 Z M 177.5,164.5 C 178.496,178.323 178.829,192.323 178.5,206.5C 175.482,206.665 172.482,206.498 169.5,206C 170.126,205.25 170.626,204.416 171,203.5C 171.5,194.84 171.666,186.173 171.5,177.5C 165.943,180.895 161.443,185.561 158,191.5C 153.798,199.307 151.632,207.641 151.5,216.5C 160.418,216.183 169.251,216.516 178,217.5C 178.667,236.167 178.667,254.833 178,273.5C 162.315,264.322 152.148,250.989 147.5,233.5C 150.187,233.336 152.854,233.503 155.5,234C 154.409,236.064 154.242,238.231 155,240.5C 158.121,248.409 162.954,255.075 169.5,260.5C 170.931,248.209 171.598,235.875 171.5,223.5C 163.064,223.902 154.731,223.235 146.5,221.5C 145.626,201.74 152.626,185.24 167.5,172C 171.08,169.723 174.414,167.223 177.5,164.5 Z M 237.5,165.5 C 250.053,173.062 259.053,183.729 264.5,197.5C 262.257,198.474 259.924,198.808 257.5,198.5C 256.097,190.875 252.431,184.375 246.5,179C 245.552,178.517 244.552,178.351 243.5,178.5C 243.5,190.833 243.5,203.167 243.5,215.5C 246.85,215.665 250.183,215.498 253.5,215C 256.079,213.924 257.746,212.091 258.5,209.5C 259.167,209.833 259.833,210.167 260.5,210.5C 260.789,216.591 260.455,222.591 259.5,228.5C 259.5,229.167 259.167,229.5 258.5,229.5C 258.586,228.504 258.252,227.671 257.5,227C 253.369,223.923 248.702,222.756 243.5,223.5C 243.5,232.5 243.5,241.5 243.5,250.5C 240.482,250.665 237.482,250.498 234.5,250C 235.126,249.25 235.626,248.416 236,247.5C 236.5,228.503 236.667,209.503 236.5,190.5C 236.174,181.983 236.507,173.65 237.5,165.5 Z"/></g>
<g><path style="opacity:1" fill="#debd65" d="M 254.5,144.5 C 256.754,145.415 258.754,146.748 260.5,148.5C 257.329,150.838 254.662,153.671 252.5,157C 253.593,158.365 254.926,158.699 256.5,158C 259.242,156.114 260.909,153.614 261.5,150.5C 267.78,152.049 270.28,156.049 269,162.5C 266.166,166.417 262.666,167.251 258.5,165C 255.465,162.086 252.131,159.586 248.5,157.5C 247.614,156.675 247.281,155.675 247.5,154.5C 250.9,153.476 253.233,151.142 254.5,147.5C 253.209,146.473 253.209,145.473 254.5,144.5 Z M 263.5,155.5 C 265.252,155.418 266.252,156.251 266.5,158C 265.004,162.238 262.338,163.572 258.5,162C 260.539,160.074 262.206,157.907 263.5,155.5 Z"/></g>
<g><path style="opacity:1" fill="#dcbb63" d="M 162.5,161.5 C 161.833,161.5 161.5,161.833 161.5,162.5C 157.581,165.075 153.915,168.075 150.5,171.5C 148.219,167.431 146.885,167.764 146.5,172.5C 148.179,172.285 149.179,172.952 149.5,174.5C 147.738,175.262 146.738,176.596 146.5,178.5C 144.75,179.659 143.75,181.326 143.5,183.5C 141.694,185.089 140.361,187.089 139.5,189.5C 138.624,190.251 137.624,190.751 136.5,191C 138.047,193.931 137.547,196.431 135,198.5C 133.841,196.572 131.674,195.072 128.5,194C 126.888,193.28 125.388,193.446 124,194.5C 123.5,194 123,193.5 122.5,193C 123.741,190.437 125.074,187.937 126.5,185.5C 130.068,183.638 132.235,184.638 133,188.5C 135.532,187.994 137.698,186.827 139.5,185C 136.155,182.479 132.488,180.646 128.5,179.5C 130.293,176.749 131.959,173.916 133.5,171C 135.614,170.558 136.948,171.391 137.5,173.5C 136.209,173.263 135.209,173.596 134.5,174.5C 133.128,176.35 133.628,177.683 136,178.5C 136.464,177.906 136.631,177.239 136.5,176.5C 136.328,175.508 136.662,174.842 137.5,174.5C 138.5,175.167 139.5,175.833 140.5,176.5C 140.5,177.167 140.5,177.833 140.5,178.5C 138.066,179.354 138.233,180.354 141,181.5C 141.791,180.255 142.291,178.922 142.5,177.5C 142.328,176.508 142.662,175.842 143.5,175.5C 144.043,175.44 144.376,175.107 144.5,174.5C 142.374,171.081 140.374,167.581 138.5,164C 139.025,163.308 139.692,162.808 140.5,162.5C 144.167,163.833 147.833,165.167 151.5,166.5C 152.308,166.192 152.975,165.692 153.5,165C 151.633,161.632 148.966,159.132 145.5,157.5C 146.473,155.36 147.973,153.693 150,152.5C 151.284,153.572 151.617,154.905 151,156.5C 152.886,159.242 155.386,160.909 158.5,161.5C 158.215,159.712 158.548,158.045 159.5,156.5C 161.756,157.421 162.756,159.088 162.5,161.5 Z M 134.5,174.5 C 135.167,175.167 135.833,175.833 136.5,176.5C 136.631,177.239 136.464,177.906 136,178.5C 133.628,177.683 133.128,176.35 134.5,174.5 Z M 142.5,177.5 C 142.291,178.922 141.791,180.255 141,181.5C 138.233,180.354 138.066,179.354 140.5,178.5C 141.167,178.167 141.833,177.833 142.5,177.5 Z M 127.5,188.5 C 128.5,188.5 129.5,188.5 130.5,188.5C 130.193,191.962 129.193,191.962 127.5,188.5 Z"/></g>
<g><path style="opacity:1" fill="#dcbb65" d="M 276.5,170.5 C 277.506,169.604 277.506,168.938 276.5,168.5C 275.74,166.015 274.74,166.015 273.5,168.5C 274.167,169.167 274.833,169.833 275.5,170.5C 273.072,174.785 271.572,174.452 271,169.5C 270.167,170.333 269.333,171.167 268.5,172C 270.135,173.748 272.135,174.915 274.5,175.5C 273.975,176.192 273.308,176.692 272.5,177C 277.132,176.607 281.799,176.607 286.5,177C 284.356,179.979 282.022,182.812 279.5,185.5C 278.355,186.891 278.355,188.224 279.5,189.5C 282.847,188.391 285.847,186.724 288.5,184.5C 290.047,185.768 291.047,187.435 291.5,189.5C 287.761,189.835 284.094,191.168 280.5,193.5C 281.5,195.167 282.833,196.5 284.5,197.5C 283.264,198.357 281.931,199.023 280.5,199.5C 278.355,194.39 276.021,189.39 273.5,184.5C 278.219,183.208 278.553,181.542 274.5,179.5C 273.833,180.167 273.167,180.833 272.5,181.5C 269.687,177.902 266.853,174.235 264,170.5C 263.134,168.104 263.634,167.437 265.5,168.5C 269.174,166.826 271.841,164.159 273.5,160.5C 276.295,162.751 278.628,165.418 280.5,168.5C 279.601,170.841 278.268,171.507 276.5,170.5 Z M 276.5,168.5 C 275.5,168.5 274.5,168.5 273.5,168.5C 274.74,166.015 275.74,166.015 276.5,168.5 Z"/></g>
<g><path style="opacity:0.016" fill="#b4b4b4" d="M 237.5,165.5 C 236.507,173.65 236.174,181.983 236.5,190.5C 235.179,181.991 235.179,173.325 236.5,164.5C 237.107,164.624 237.44,164.957 237.5,165.5 Z"/></g>
<g><path style="opacity:0.09" fill="#424242" d="M 273.5,168.5 C 274.5,168.5 275.5,168.5 276.5,168.5C 277.506,168.938 277.506,169.604 276.5,170.5C 276.167,170.5 275.833,170.5 275.5,170.5C 274.833,169.833 274.167,169.167 273.5,168.5 Z"/></g>
<g><path style="opacity:0.082" fill="#6c6c6c" d="M 134.5,174.5 C 135.209,173.596 136.209,173.263 137.5,173.5C 137.5,173.833 137.5,174.167 137.5,174.5C 136.662,174.842 136.328,175.508 136.5,176.5C 135.833,175.833 135.167,175.167 134.5,174.5 Z"/></g>
<g><path style="opacity:0.251" fill="#7e7e7e" d="M 264.5,175.5 C 265.906,175.973 266.573,176.973 266.5,178.5C 265.094,178.027 264.427,177.027 264.5,175.5 Z"/></g>
<g><path style="opacity:0.043" fill="#787878" d="M 143.5,175.5 C 142.662,175.842 142.328,176.508 142.5,177.5C 141.833,177.833 141.167,178.167 140.5,178.5C 140.5,177.833 140.5,177.167 140.5,176.5C 141.151,175.909 141.818,175.243 142.5,174.5C 143.107,174.624 143.44,174.957 143.5,175.5 Z"/></g>
<g><path style="opacity:0.008" fill="#717171" d="M 274.5,179.5 C 274.719,180.675 274.386,181.675 273.5,182.5C 272.893,182.376 272.56,182.043 272.5,181.5C 273.167,180.833 273.833,180.167 274.5,179.5 Z"/></g>
<g><path style="opacity:1" fill="#ebc353" d="M 41.5,205.5 C 48.8333,205.5 56.1667,205.5 63.5,205.5C 63.5,208.5 63.5,211.5 63.5,214.5C 62.325,214.719 61.325,214.386 60.5,213.5C 59.5268,209.852 57.1935,208.186 53.5,208.5C 53.5,216.167 53.5,223.833 53.5,231.5C 54.8333,231.5 56.1667,231.5 57.5,231.5C 57.5,232.5 57.5,233.5 57.5,234.5C 52.8333,234.5 48.1667,234.5 43.5,234.5C 43.5,233.5 43.5,232.5 43.5,231.5C 44.8333,231.5 46.1667,231.5 47.5,231.5C 47.5,223.833 47.5,216.167 47.5,208.5C 43.8731,208.621 41.5398,210.455 40.5,214C 39.552,214.483 38.552,214.649 37.5,214.5C 37.5,213.5 37.5,212.5 37.5,211.5C 38.4511,210.081 38.7845,208.415 38.5,206.5C 39.791,206.737 40.791,206.404 41.5,205.5 Z"/></g>
<g><path style="opacity:1" fill="#eec657" d="M 75.5,231.5 C 76.1098,232.391 76.4431,233.391 76.5,234.5C 72.5,234.5 68.5,234.5 64.5,234.5C 64.5,233.5 64.5,232.5 64.5,231.5C 65.5,231.5 66.5,231.5 67.5,231.5C 67.6663,224.159 67.4997,216.826 67,209.5C 65.2942,208.692 64.4609,207.359 64.5,205.5C 68.8333,205.5 73.1667,205.5 77.5,205.5C 77.5,206.5 77.5,207.5 77.5,208.5C 76.1779,208.33 75.0113,208.663 74,209.5C 73.5026,212.146 73.3359,214.813 73.5,217.5C 77.5,217.5 81.5,217.5 85.5,217.5C 85.6641,214.813 85.4974,212.146 85,209.5C 83.9887,208.663 82.8221,208.33 81.5,208.5C 81.5,207.5 81.5,206.5 81.5,205.5C 85.8333,205.5 90.1667,205.5 94.5,205.5C 94.5,206.5 94.5,207.5 94.5,208.5C 92.8762,208.36 91.7096,209.027 91,210.5C 90.3333,216.833 90.3333,223.167 91,229.5C 91.7096,230.973 92.8762,231.64 94.5,231.5C 94.5,232.5 94.5,233.5 94.5,234.5C 90.1667,234.5 85.8333,234.5 81.5,234.5C 81.5,233.5 81.5,232.5 81.5,231.5C 82.8333,231.5 84.1667,231.5 85.5,231.5C 85.5,228.167 85.5,224.833 85.5,221.5C 81.5,221.5 77.5,221.5 73.5,221.5C 72.931,225.329 73.5977,228.663 75.5,231.5 Z"/></g>
<g><path style="opacity:1" fill="#e7c159" d="M 97.5,234.5 C 97.7822,233.222 98.4489,232.222 99.5,231.5C 100.655,224.345 100.822,217.012 100,209.5C 98.9887,208.663 97.8221,208.33 96.5,208.5C 96.5,207.5 96.5,206.5 96.5,205.5C 104.167,205.5 111.833,205.5 119.5,205.5C 119.5,208.167 119.5,210.833 119.5,213.5C 117.014,212.756 115.014,211.256 113.5,209C 111.19,208.503 108.857,208.337 106.5,208.5C 106.5,211.5 106.5,214.5 106.5,217.5C 110.241,218.401 112.241,217.068 112.5,213.5C 113.5,213.5 114.5,213.5 115.5,213.5C 115.5,217.5 115.5,221.5 115.5,225.5C 113.41,225.55 112.077,224.55 111.5,222.5C 109.955,221.548 108.288,221.215 106.5,221.5C 106.5,224.833 106.5,228.167 106.5,231.5C 109.518,231.665 112.518,231.498 115.5,231C 116.872,229.758 117.872,228.258 118.5,226.5C 119.689,225.571 121.022,225.238 122.5,225.5C 121.841,228.455 121.508,231.455 121.5,234.5C 113.5,234.5 105.5,234.5 97.5,234.5 Z"/></g>
<g><path style="opacity:1" fill="#e1bd5c" d="M 299.5,204.5 C 302.313,204.548 304.979,205.215 307.5,206.5C 308.736,205.754 310.07,205.421 311.5,205.5C 311.924,209.703 311.424,213.703 310,217.5C 308.414,215.33 307.08,212.996 306,210.5C 301.96,207.031 298.293,207.697 295,212.5C 292.41,219.301 293.576,225.301 298.5,230.5C 300.768,231.544 303.101,231.711 305.5,231C 307.293,229.22 308.96,227.387 310.5,225.5C 311.72,225.887 312.387,226.72 312.5,228C 308.292,234.895 302.292,236.895 294.5,234C 287.019,227.469 285.519,219.636 290,210.5C 292.619,207.48 295.786,205.48 299.5,204.5 Z"/></g>
<g><path style="opacity:1" fill="#ebc457" d="M 384.5,214.5 C 386.414,217.684 387.08,221.351 386.5,225.5C 384.436,225.238 383.103,224.071 382.5,222C 380.866,221.506 379.199,221.34 377.5,221.5C 377.216,224.777 377.549,227.943 378.5,231C 381.5,231.667 384.5,231.667 387.5,231C 388.5,229.333 389.5,227.667 390.5,226C 391.448,225.517 392.448,225.351 393.5,225.5C 393.5,228.5 393.5,231.5 393.5,234.5C 382.147,234.832 370.814,234.499 359.5,233.5C 357.167,230.167 354.833,226.833 352.5,223.5C 351.675,222.614 350.675,222.281 349.5,222.5C 349.336,225.187 349.503,227.854 350,230.5C 351.011,231.337 352.178,231.67 353.5,231.5C 353.5,232.5 353.5,233.5 353.5,234.5C 345.167,234.5 336.833,234.5 328.5,234.5C 328.782,233.222 329.449,232.222 330.5,231.5C 331.043,231.44 331.376,231.107 331.5,230.5C 330.904,226.809 328.738,225.142 325,225.5C 320.24,224.761 318.407,226.761 319.5,231.5C 320.5,231.5 321.5,231.5 322.5,231.5C 322.5,232.5 322.5,233.5 322.5,234.5C 318.833,234.5 315.167,234.5 311.5,234.5C 316.691,225.814 320.858,216.48 324,206.5C 325.333,205.167 326.667,205.167 328,206.5C 331.069,214.54 334.235,222.54 337.5,230.5C 339.743,231.474 342.076,231.808 344.5,231.5C 344.666,224.159 344.5,216.826 344,209.5C 342.989,208.663 341.822,208.33 340.5,208.5C 340.5,207.5 340.5,206.5 340.5,205.5C 347.257,205.123 353.924,205.623 360.5,207C 365.141,212.839 364.141,217.505 357.5,221C 360.167,224.333 362.833,227.667 365.5,231C 367.769,231.758 369.936,231.591 372,230.5C 372.667,223.5 372.667,216.5 372,209.5C 370.989,208.663 369.822,208.33 368.5,208.5C 368.5,207.5 368.5,206.5 368.5,205.5C 376.167,205.5 383.833,205.5 391.5,205.5C 391.5,208.167 391.5,210.833 391.5,213.5C 390.448,213.649 389.448,213.483 388.5,213C 386.085,208.872 382.419,207.372 377.5,208.5C 377.5,211.5 377.5,214.5 377.5,217.5C 379.5,217.5 381.5,217.5 383.5,217.5C 383.263,216.209 383.596,215.209 384.5,214.5 Z M 349.5,208.5 C 353.807,207.649 356.474,209.316 357.5,213.5C 356.252,217.418 353.585,219.418 349.5,219.5C 349.5,215.833 349.5,212.167 349.5,208.5 Z M 327.5,221.5 C 325.585,221.784 323.919,221.451 322.5,220.5C 323.228,218.488 324.062,216.488 325,214.5C 325.744,216.9 326.577,219.233 327.5,221.5 Z"/></g>
<g><path style="opacity:1" fill="#eac357" d="M 404.5,205.5 C 408.833,205.5 413.167,205.5 417.5,205.5C 417.5,206.5 417.5,207.5 417.5,208.5C 416.5,208.5 415.5,208.5 414.5,208.5C 414.5,216.167 414.5,223.833 414.5,231.5C 419.977,232.57 423.644,230.57 425.5,225.5C 426.325,224.614 427.325,224.281 428.5,224.5C 428.682,226.591 428.348,228.591 427.5,230.5C 428.274,231.711 429.107,231.711 430,230.5C 433.069,222.46 436.235,214.46 439.5,206.5C 440.689,205.571 442.022,205.238 443.5,205.5C 445.902,214.093 449.068,222.426 453,230.5C 455.041,231.423 457.208,231.756 459.5,231.5C 459.666,224.159 459.5,216.826 459,209.5C 457.989,208.663 456.822,208.33 455.5,208.5C 455.5,207.5 455.5,206.5 455.5,205.5C 461.176,205.334 466.843,205.501 472.5,206C 476.983,207.134 478.816,209.967 478,214.5C 477.167,216.667 475.667,218.167 473.5,219C 479.158,220.829 480.992,224.663 479,230.5C 477.786,232.049 476.286,233.215 474.5,234C 464.172,234.5 453.839,234.666 443.5,234.5C 443.5,233.5 443.5,232.5 443.5,231.5C 444.675,231.719 445.675,231.386 446.5,230.5C 444.282,225.765 440.615,224.432 435.5,226.5C 434.691,228.071 434.357,229.738 434.5,231.5C 436.346,231.222 437.68,231.889 438.5,233.5C 427.186,234.499 415.853,234.832 404.5,234.5C 404.5,233.5 404.5,232.5 404.5,231.5C 405.822,231.67 406.989,231.337 408,230.5C 408.667,223.833 408.667,217.167 408,210.5C 407.29,209.027 406.124,208.36 404.5,208.5C 404.5,207.5 404.5,206.5 404.5,205.5 Z M 465.5,208.5 C 470.934,208.59 472.601,211.257 470.5,216.5C 468.929,217.309 467.262,217.643 465.5,217.5C 465.5,214.5 465.5,211.5 465.5,208.5 Z M 442.5,219.5 C 441.448,221.256 439.781,221.923 437.5,221.5C 438.03,219.076 438.864,216.743 440,214.5C 440.757,216.315 441.59,217.981 442.5,219.5 Z M 470.5,221.5 C 473.254,223.053 474.087,225.386 473,228.5C 470.952,231.356 468.452,232.023 465.5,230.5C 465.5,227.5 465.5,224.5 465.5,221.5C 467.167,221.5 468.833,221.5 470.5,221.5 Z"/></g>
<g><path style="opacity:0.016" fill="#777777" d="M 41.5,205.5 C 40.791,206.404 39.791,206.737 38.5,206.5C 38.7845,208.415 38.4511,210.081 37.5,211.5C 37.5,209.5 37.5,207.5 37.5,205.5C 38.8333,205.5 40.1667,205.5 41.5,205.5 Z"/></g>
<g><path style="opacity:0.055" fill="#646464" d="M 258.5,209.5 C 259.623,208.243 260.289,208.576 260.5,210.5C 259.833,210.167 259.167,209.833 258.5,209.5 Z"/></g>
<g><path style="opacity:0.09" fill="#989898" d="M 384.5,214.5 C 385.209,213.596 386.209,213.263 387.5,213.5C 387.817,217.702 387.483,221.702 386.5,225.5C 387.08,221.351 386.414,217.684 384.5,214.5 Z"/></g>
<g><path style="opacity:0.055" fill="#8d8d8d" d="M 322.5,220.5 C 323.919,221.451 325.585,221.784 327.5,221.5C 327.723,222.296 326.89,222.63 325,222.5C 323.833,222.167 322.667,221.833 321.5,221.5C 321.624,220.893 321.957,220.56 322.5,220.5 Z"/></g>
<g><path style="opacity:0.055" fill="#848484" d="M 442.5,219.5 C 443.404,220.209 443.737,221.209 443.5,222.5C 440.659,222.847 438.659,222.513 437.5,221.5C 439.781,221.923 441.448,221.256 442.5,219.5 Z"/></g>
<g><path style="opacity:0.047" fill="#838383" d="M 470.5,221.5 C 468.833,221.5 467.167,221.5 465.5,221.5C 465.5,224.5 465.5,227.5 465.5,230.5C 464.521,227.375 464.187,224.042 464.5,220.5C 466.735,220.205 468.735,220.539 470.5,221.5 Z"/></g>
<g><path style="opacity:0.075" fill="#535353" d="M 259.5,228.5 C 260.043,228.56 260.376,228.893 260.5,229.5C 259.743,230.773 259.077,230.773 258.5,229.5C 259.167,229.5 259.5,229.167 259.5,228.5 Z"/></g>
<g><path style="opacity:0.153" fill="#8e8e8e" d="M 75.5,231.5 C 77.5518,232.053 77.8852,233.053 76.5,234.5C 76.4431,233.391 76.1098,232.391 75.5,231.5 Z"/></g>
<g><path style="opacity:0.047" fill="#a0a0a0" d="M 99.5,231.5 C 98.4489,232.222 97.7822,233.222 97.5,234.5C 96.596,233.791 96.2627,232.791 96.5,231.5C 97.5,231.5 98.5,231.5 99.5,231.5 Z"/></g>
<g><path style="opacity:0.035" fill="#b7b7b7" d="M 330.5,231.5 C 329.449,232.222 328.782,233.222 328.5,234.5C 327.596,233.791 327.263,232.791 327.5,231.5C 328.5,231.5 329.5,231.5 330.5,231.5 Z"/></g>
<g><path style="opacity:0.049" fill="#8b8b8b" d="M 261.5,248.5 C 258.833,247.167 256.167,247.167 253.5,248.5C 252.957,248.44 252.624,248.107 252.5,247.5C 255.833,246.167 259.167,246.167 262.5,247.5C 262.376,248.107 262.043,248.44 261.5,248.5 Z"/></g>
<g><path style="opacity:0.027" fill="#787878" d="M 210.5,280.5 C 210.802,277.941 210.468,275.607 209.5,273.5C 209.783,272.711 210.283,272.044 211,271.5C 211.805,274.696 211.638,277.696 210.5,280.5 Z"/></g>
<g><path style="opacity:0.122" fill="#7a7a7a" d="M 189.5,292.5 C 188.209,292.263 187.209,292.596 186.5,293.5C 185.249,292.528 185.582,291.861 187.5,291.5C 188.416,291.543 189.083,291.876 189.5,292.5 Z"/></g>
<g><path style="opacity:1" fill="#dcba5e" d="M 189.5,292.5 C 191.96,292.699 194.293,293.365 196.5,294.5C 197.18,296.889 198.014,299.222 199,301.5C 200.039,299.254 201.206,297.087 202.5,295C 204.134,294.506 205.801,294.34 207.5,294.5C 206.244,298.064 205.244,301.73 204.5,305.5C 205.325,306.386 206.325,306.719 207.5,306.5C 208.099,303.037 209.099,299.704 210.5,296.5C 211.5,295.167 212.5,295.167 213.5,296.5C 215.1,298.703 216.433,301.036 217.5,303.5C 217.328,304.492 217.662,305.158 218.5,305.5C 218.5,306.167 218.833,306.5 219.5,306.5C 218.848,307.725 217.681,308.392 216,308.5C 214.833,308.167 213.667,307.833 212.5,307.5C 215.109,306.24 214.943,305.24 212,304.5C 209.057,305.24 208.891,306.24 211.5,307.5C 209.5,307.833 207.5,308.167 205.5,308.5C 203.048,308.461 201.048,307.794 199.5,306.5C 197.871,308.06 196.704,307.727 196,305.5C 195.161,306.624 193.994,307.291 192.5,307.5C 189.042,306.903 185.709,305.903 182.5,304.5C 185.787,301.648 187.12,297.981 186.5,293.5C 187.209,292.596 188.209,292.263 189.5,292.5 Z M 190.5,295.5 C 191.586,295.62 192.253,296.287 192.5,297.5C 192.046,300.222 191.38,302.889 190.5,305.5C 189.28,305.113 188.613,304.28 188.5,303C 189.249,300.503 189.916,298.003 190.5,295.5 Z M 200.5,302.5 C 201.338,302.842 201.672,303.508 201.5,304.5C 201.5,305.833 200.833,306.5 199.5,306.5C 199.833,305.167 200.167,303.833 200.5,302.5 Z"/></g>
<g><path style="opacity:1" fill="#d5b561" d="M 232.5,301.5 C 232.204,299.597 231.537,297.93 230.5,296.5C 228.738,293.858 228.405,294.025 229.5,297C 228.975,297.692 228.308,298.192 227.5,298.5C 225.74,295.074 223.574,294.741 221,297.5C 220.228,302.072 222.061,304.739 226.5,305.5C 225.833,303.5 225.167,301.5 224.5,299.5C 226.167,299.5 227.833,299.5 229.5,299.5C 230.506,299.938 230.506,300.604 229.5,301.5C 230.795,305.849 228.962,307.849 224,307.5C 222.408,307.395 220.908,307.061 219.5,306.5C 218.833,306.5 218.5,306.167 218.5,305.5C 218.672,304.508 218.338,303.842 217.5,303.5C 216.814,299.713 217.814,296.546 220.5,294C 226.248,292.492 232.248,290.992 238.5,289.5C 237.849,292.137 237.849,294.637 238.5,297C 238.32,299.241 237.487,299.741 236,298.5C 235.517,299.448 235.351,300.448 235.5,301.5C 236.833,301.5 238.167,301.5 239.5,301.5C 239.5,300.167 239.5,298.833 239.5,297.5C 240.5,297.5 241.5,297.5 242.5,297.5C 242.859,299.766 242.192,301.599 240.5,303C 237.509,304.523 234.509,305.023 231.5,304.5C 232.127,303.583 232.461,302.583 232.5,301.5 Z M 233.5,292.5 C 236.774,292.628 236.941,293.961 234,296.5C 233.51,295.207 233.343,293.873 233.5,292.5 Z M 230.5,296.5 C 230.443,297.609 230.11,298.609 229.5,299.5C 227.833,299.5 226.167,299.5 224.5,299.5C 225.167,301.5 225.833,303.5 226.5,305.5C 222.061,304.739 220.228,302.072 221,297.5C 223.574,294.741 225.74,295.074 227.5,298.5C 228.308,298.192 228.975,297.692 229.5,297C 228.405,294.025 228.738,293.858 230.5,296.5 Z"/></g>
<g><path style="opacity:0.098" fill="#6d6d6d" d="M 213.5,296.5 C 212.5,295.167 211.5,295.167 210.5,296.5C 211.5,293.833 212.5,293.833 213.5,296.5 Z"/></g>
<g><path style="opacity:0.008" fill="#c4c4c4" d="M 230.5,296.5 C 231.537,297.93 232.204,299.597 232.5,301.5C 231.5,301.5 230.5,301.5 229.5,301.5C 230.506,300.604 230.506,299.938 229.5,299.5C 230.11,298.609 230.443,297.609 230.5,296.5 Z"/></g>
<g><path style="opacity:0.071" fill="#616161" d="M 201.5,304.5 C 201.672,303.508 201.338,302.842 200.5,302.5C 200.783,301.711 201.283,301.044 202,300.5C 202.765,302.066 202.598,303.399 201.5,304.5 Z"/></g>
</svg>
