<?xml version="1.0" standalone="no"?>
<!DOCTYPE svg PUBLIC "-//W3C//DTD SVG 20010904//EN"
 "http://www.w3.org/TR/2001/REC-SVG-20010904/DTD/svg10.dtd">
<svg version="1.0" xmlns="http://www.w3.org/2000/svg"
 width="750.000000pt" height="1334.000000pt" viewBox="0 0 750.000000 1334.000000"
 preserveAspectRatio="xMidYMid meet">

<g transform="translate(0.000000,1334.000000) scale(0.100000,-0.100000)"
fill="#000000" stroke="none">
<path d="M0 6750 l0 -6590 3750 0 3750 0 0 6590 0 6590 -3750 0 -3750 0 0
-6590z m4294 3624 c134 -15 407 -64 471 -84 17 -5 71 -21 120 -35 157 -45 377
-131 535 -210 250 -125 571 -346 755 -520 54 -51 43 -53 187 37 74 46 143 88
153 95 118 72 485 263 505 263 12 0 90 -161 90 -184 0 -8 -20 -26 -45 -40
-131 -72 -325 -226 -498 -392 l-88 -85 32 -44 c18 -25 39 -52 48 -62 53 -59
227 -314 271 -398 9 -16 35 -64 58 -106 23 -41 71 -141 106 -222 273 -620 350
-1313 221 -1972 -87 -442 -248 -837 -494 -1210 -34 -52 -150 -213 -176 -244
-259 -312 -512 -539 -810 -727 -61 -38 -119 -75 -130 -82 -29 -18 -323 -164
-370 -183 -157 -65 -373 -136 -495 -164 -41 -10 -80 -23 -87 -29 -8 -7 -14
-105 -20 -311 l-8 -300 -103 -3 c-84 -2 -103 0 -108 12 -9 23 14 749 31 1016
23 349 81 945 99 1025 3 11 12 70 21 130 39 273 123 707 190 973 134 540 268
943 462 1392 53 122 242 503 278 561 14 21 25 40 25 43 0 16 291 472 310 486
3 3 25 33 48 67 23 34 64 88 90 120 98 120 92 117 -135 -69 -349 -287 -691
-646 -973 -1023 -25 -33 -48 -61 -52 -63 -5 -2 -8 -9 -8 -15 0 -6 -8 -20 -19
-31 -27 -31 -179 -259 -248 -372 -147 -243 -197 -331 -290 -514 -300 -591
-514 -1189 -687 -1915 -74 -310 -155 -788 -186 -1095 -6 -58 -12 -123 -15
-145 -7 -62 -24 -317 -31 -458 l-6 -128 -104 3 -104 3 -5 260 c-3 143 -8 288
-11 321 l-5 62 -72 22 c-281 88 -386 129 -582 227 -764 381 -1337 1013 -1634
1802 -109 291 -164 523 -202 866 -16 138 -16 529 0 655 22 168 51 343 72 430
75 307 210 650 357 900 68 117 203 319 254 381 21 26 38 51 38 56 0 12 -225
232 -310 303 -36 30 -74 63 -85 73 -22 20 -220 156 -273 187 -37 22 -37 18 25
145 24 49 33 60 52 57 59 -6 427 -275 586 -428 39 -37 91 -88 117 -113 l48
-45 102 100 c469 456 1001 747 1624 889 100 23 333 60 429 68 127 11 530 6
659 -9z"/>
<path d="M3715 10170 c-484 -38 -877 -157 -1325 -402 -90 -50 -288 -183 -375
-253 -136 -109 -385 -338 -385 -355 0 -4 8 -15 18 -26 10 -10 55 -66 101 -124
45 -58 87 -112 94 -120 85 -104 288 -424 426 -670 93 -165 246 -494 360 -775
84 -204 211 -587 276 -830 121 -449 220 -923 269 -1290 9 -66 23 -163 31 -215
7 -52 21 -169 31 -260 9 -91 20 -171 24 -179 4 -7 19 51 34 130 75 390 250
999 396 1379 12 30 25 67 30 81 4 15 15 42 24 60 8 19 31 72 49 119 121 301
331 718 510 1015 119 197 385 584 409 593 4 2 8 8 8 13 0 14 160 211 304 374
90 103 397 410 501 502 44 39 96 85 115 102 35 31 295 236 358 281 36 27 39
39 14 60 -97 82 -187 154 -232 187 -72 52 -190 133 -195 133 -2 0 -23 13 -47
29 -64 42 -300 164 -398 204 -274 113 -552 186 -845 221 -156 19 -441 27 -580
16z m371 -510 c268 -68 459 -258 525 -521 29 -114 23 -269 -15 -379 -75 -213
-232 -372 -439 -442 -277 -93 -590 -5 -770 218 -55 67 -118 192 -138 274 -18
70 -18 281 0 335 51 158 103 246 204 341 172 164 413 230 633 174z"/>
<path d="M3835 9450 c-151 -30 -262 -118 -336 -265 -34 -68 -41 -93 -46 -165
-10 -151 35 -276 136 -378 97 -98 203 -142 347 -142 184 0 348 105 428 274
130 274 -28 601 -322 672 -62 15 -145 16 -207 4z"/>
<path d="M6253 8969 c-64 -77 -178 -224 -213 -275 -8 -12 -44 -64 -79 -115
-388 -566 -724 -1329 -937 -2129 -80 -299 -138 -552 -173 -750 -84 -480 -128
-810 -165 -1230 -17 -189 -31 -436 -25 -447 6 -12 39 -5 168 32 284 83 624
246 881 423 230 159 504 412 635 587 21 28 50 64 65 80 49 54 209 304 284 443
210 391 326 803 358 1275 9 141 9 215 -1 365 -27 388 -92 672 -239 1037 -17
41 -131 269 -172 340 -62 111 -229 351 -291 419 l-26 28 -70 -83z"/>
<path d="M1425 8914 c-22 -30 -44 -60 -50 -67 -24 -29 -95 -136 -95 -143 0 -4
-6 -15 -14 -23 -8 -9 -42 -67 -76 -130 -363 -666 -474 -1398 -324 -2131 62
-300 145 -538 286 -813 346 -677 960 -1220 1678 -1484 95 -35 238 -83 248 -83
10 0 -34 539 -68 835 -24 202 -62 468 -95 655 -12 74 -26 151 -29 170 -27 170
-141 646 -223 930 -200 695 -515 1399 -840 1878 -35 51 -63 95 -63 98 0 2 -6
12 -14 21 -8 10 -50 65 -93 123 -43 58 -82 110 -88 116 -5 7 -26 32 -45 58
-19 25 -39 45 -45 45 -5 0 -28 -24 -50 -55z"/>
</g>
</svg>
